<svg width="50" height="52" viewBox="0 0 50 52" fill="none" xmlns="http://www.w3.org/2000/svg">
<path d="M0.00195312 10.3337C0.00195312 4.67617 4.58827 0.0898438 10.2458 0.0898438H39.5705C45.228 0.0898438 49.8144 4.67617 49.8144 10.3337V41.0289C49.8144 46.6864 45.2281 51.2727 39.5705 51.2727H10.2458C4.58829 51.2727 0.00195312 46.6864 0.00195312 41.0289V10.3337Z" fill="#E9F0FF"/>
<path d="M18.5545 22.5587C18.7805 22.4403 19.0306 22.3786 19.2843 22.3786V20.7275C18.7769 20.7275 18.2766 20.851 17.8246 21.0878C17.7748 21.1139 17.7257 21.1413 17.6774 21.1699C17.2875 21.4012 16.9486 21.7146 16.6834 22.0901C16.3853 22.5121 16.1888 23.0006 16.1098 23.5156C16.0308 24.0307 16.0716 24.5576 16.2289 25.0533C16.3862 25.549 16.6556 25.9994 17.0148 26.3676C17.3741 26.7358 17.8132 27.0114 18.296 27.1717C18.7257 27.3144 19.1792 27.3622 19.6269 27.3129C19.6823 27.3068 19.7377 27.2992 19.7929 27.2901C20.2936 27.2077 20.7682 27.0046 21.1779 26.6976L21.1787 26.697L20.2315 25.3633C20.0266 25.517 19.7891 25.6186 19.5386 25.6598C19.2881 25.7011 19.0316 25.6808 18.7902 25.6006C18.5488 25.5204 18.3292 25.3827 18.1496 25.1986C17.97 25.0145 17.8353 24.7893 17.7567 24.5414C17.678 24.2936 17.6576 24.0301 17.6971 23.7726C17.7366 23.5151 17.8349 23.2709 17.9839 23.0599C18.1329 22.8489 18.3284 22.6772 18.5545 22.5587Z" fill="#323232"/>
<path d="M16.0721 33.1104C16.0721 32.677 16.1552 32.2478 16.3166 31.8474C16.4781 31.4469 16.7147 31.0831 17.0129 30.7766C17.3112 30.4701 17.6653 30.227 18.0551 30.0611C18.4448 29.8953 18.8625 29.8099 19.2843 29.8099V28.1573C18.7363 28.1573 18.1929 28.2533 17.6774 28.4405C17.5974 28.4696 17.5181 28.5009 17.4396 28.5343C16.8547 28.7832 16.3233 29.1481 15.8756 29.608C15.428 30.068 15.0729 30.614 14.8307 31.2149C14.7981 31.2957 14.7677 31.3772 14.7394 31.4594C14.5572 31.9891 14.4637 32.5474 14.4637 33.1104H16.0721Z" fill="#323232"/>
<path d="M24.9072 18.2515C22.6886 18.2515 20.8901 20.0995 20.8901 22.3791C20.8901 24.6588 22.6886 26.5068 24.9072 26.5068C27.1258 26.5068 28.9243 24.6588 28.9243 22.3791C28.9243 20.0995 27.1258 18.2515 24.9072 18.2515ZM22.4969 22.3791C22.4969 21.0113 23.576 19.9025 24.9072 19.9025C26.2383 19.9025 27.3175 21.0113 27.3175 22.3791C27.3175 23.7469 26.2383 24.8557 24.9072 24.8557C23.576 24.8557 22.4969 23.7469 22.4969 22.3791Z" fill="#323232"/>
<path d="M31.261 22.5593C31.035 22.4409 30.7849 22.3792 30.5312 22.3792V20.7281C31.0386 20.7281 31.5388 20.8515 31.9909 21.0884C32.0407 21.1144 32.0898 21.1418 32.138 21.1705C32.528 21.4018 32.8669 21.7151 33.1321 22.0906C33.4302 22.5126 33.6267 23.0011 33.7057 23.5162C33.7847 24.0312 33.7439 24.5582 33.5865 25.0539C33.4292 25.5496 33.1599 26 32.8006 26.3682C32.4413 26.7364 32.0023 27.0119 31.5195 27.1723C31.0898 27.315 30.6363 27.3628 30.1885 27.3135C30.1331 27.3074 30.0778 27.2998 30.0226 27.2907C29.5219 27.2082 29.0473 27.0052 28.6376 26.6982L28.6368 26.6976L29.584 25.3639C29.7889 25.5176 30.0264 25.6191 30.2769 25.6604C30.5274 25.7016 30.7839 25.6814 31.0253 25.6012C31.2667 25.521 31.4862 25.3832 31.6659 25.1991C31.8455 25.0151 31.9802 24.7899 32.0588 24.542C32.1375 24.2942 32.1579 24.0307 32.1184 23.7732C32.0789 23.5157 31.9806 23.2714 31.8316 23.0604C31.6826 22.8495 31.487 22.6777 31.261 22.5593Z" fill="#323232"/>
<path d="M33.7434 33.111C33.7434 32.6776 33.6603 32.2484 33.4988 31.8479C33.3374 31.4475 33.1008 31.0837 32.8025 30.7772C32.5042 30.4707 32.1501 30.2276 31.7604 30.0617C31.3707 29.8958 30.953 29.8105 30.5312 29.8105V28.1578C31.0792 28.1578 31.6225 28.2538 32.138 28.4411C32.218 28.4702 32.2973 28.5014 32.3759 28.5349C32.9608 28.7838 33.4922 29.1486 33.9398 29.6086C34.3875 30.0685 34.7425 30.6146 34.9848 31.2155C35.0173 31.2962 35.0478 31.3778 35.076 31.46C35.2583 31.9896 35.3517 32.5479 35.3517 33.111H33.7434Z" fill="#323232"/>
<path d="M30.5312 33.111H28.9243C28.9243 30.8314 27.1258 28.9834 24.9072 28.9834C22.6886 28.9834 20.8901 30.8314 20.8901 33.111H19.2832C19.2832 29.9195 21.8011 27.3323 24.9072 27.3323C28.0132 27.3323 30.5312 29.9195 30.5312 33.111Z" fill="#323232"/>
</svg>
