<svg width="50" height="52" viewBox="0 0 50 52" fill="none" xmlns="http://www.w3.org/2000/svg">
<rect x="0.167969" y="0.0898438" width="49.8124" height="51.1829" rx="9.32467" fill="url(#paint0_linear_362_2690)"/>
<path d="M26.423 25.9159C26.9767 25.4234 27.4208 24.8143 27.7252 24.1299C28.0296 23.4454 28.1872 22.7017 28.1872 21.9492C28.1872 20.5352 27.6405 19.1791 26.6674 18.1793C25.6943 17.1794 24.3745 16.6177 22.9984 16.6177C21.6222 16.6177 20.3024 17.1794 19.3293 18.1793C18.3562 19.1791 17.8096 20.5352 17.8096 21.9492C17.8096 22.7017 17.9671 23.4454 18.2715 24.1299C18.5759 24.8143 19.02 25.4234 19.5738 25.9159C18.121 26.5918 16.8885 27.6833 16.0236 29.06C15.1586 30.4366 14.6978 32.0401 14.6963 33.6786C14.6963 33.9614 14.8056 34.2327 15.0002 34.4326C15.1949 34.6326 15.4588 34.7449 15.734 34.7449C16.0093 34.7449 16.2732 34.6326 16.4679 34.4326C16.6625 34.2327 16.7718 33.9614 16.7718 33.6786C16.7718 31.9818 17.4278 30.3545 18.5955 29.1547C19.7632 27.9548 21.347 27.2808 22.9984 27.2808C24.6497 27.2808 26.2335 27.9548 27.4012 29.1547C28.5689 30.3545 29.2249 31.9818 29.2249 33.6786C29.2249 33.9614 29.3342 34.2327 29.5289 34.4326C29.7235 34.6326 29.9874 34.7449 30.2627 34.7449C30.5379 34.7449 30.8019 34.6326 30.9965 34.4326C31.1911 34.2327 31.3004 33.9614 31.3004 33.6786C31.2989 32.0401 30.8381 30.4366 29.9732 29.06C29.1082 27.6833 27.8757 26.5918 26.423 25.9159ZM22.9984 25.1482C22.3826 25.1482 21.7807 24.9605 21.2687 24.609C20.7567 24.2575 20.3577 23.7579 20.1221 23.1734C19.8864 22.5889 19.8248 21.9457 19.9449 21.3251C20.065 20.7046 20.3615 20.1346 20.7969 19.6872C21.2323 19.2399 21.7871 18.9352 22.391 18.8118C22.9949 18.6883 23.6209 18.7517 24.1898 18.9938C24.7586 19.2359 25.2449 19.6459 25.587 20.172C25.929 20.6981 26.1116 21.3165 26.1116 21.9492C26.1116 22.7976 25.7836 23.6113 25.1998 24.2112C24.6159 24.8111 23.8241 25.1482 22.9984 25.1482ZM35.1505 22.621C35.054 22.5211 34.9393 22.4417 34.8128 22.3876C34.6863 22.3335 34.5507 22.3056 34.4137 22.3056C34.2767 22.3056 34.1411 22.3335 34.0146 22.3876C33.8881 22.4417 33.7734 22.5211 33.6769 22.621L31.6014 24.7536L30.958 24.0818C30.8615 23.9819 30.7467 23.9026 30.6203 23.8484C30.4938 23.7943 30.3582 23.7664 30.2212 23.7664C30.0842 23.7664 29.9485 23.7943 29.8221 23.8484C29.6956 23.9026 29.5808 23.9819 29.4844 24.0818C29.2911 24.2816 29.1826 24.5519 29.1826 24.8336C29.1826 25.1153 29.2911 25.3856 29.4844 25.5853L30.8749 27.0142C31.0694 27.2128 31.3324 27.3243 31.6066 27.3243C31.8807 27.3243 32.1437 27.2128 32.3382 27.0142L35.109 24.1672C35.2138 24.0705 35.2983 23.9529 35.3574 23.8215C35.4166 23.6902 35.4491 23.5479 35.4529 23.4032C35.4568 23.2586 35.432 23.1146 35.38 22.9802C35.328 22.8457 35.2499 22.7235 35.1505 22.621Z" fill="white"/>
<defs>
<linearGradient id="paint0_linear_362_2690" x1="25.0742" y1="0.0898437" x2="25.0742" y2="51.2727" gradientUnits="userSpaceOnUse">
<stop stop-color="#A9E3CD"/>
<stop offset="1" stop-color="#169767"/>
</linearGradient>
</defs>
</svg>
