<svg width="22" height="22" viewBox="0 0 22 22" fill="none" xmlns="http://www.w3.org/2000/svg">
<g clip-path="url(#clip0_362_2631)">
<path opacity="0.4" d="M9.23051 2.5852L2.87801 7.67269C2.16301 8.24102 1.70467 9.44185 1.86051 10.3402L3.07968 17.6368C3.29967 18.9385 4.54634 19.9927 5.86634 19.9927H16.133C17.4438 19.9927 18.6997 18.9293 18.9197 17.6368L20.1388 10.3402C20.2855 9.44185 19.8272 8.24102 19.1213 7.67269L12.7688 2.59434C11.788 1.80601 10.2022 1.80603 9.23051 2.5852Z" fill="#BDC4C9"/>
<path d="M10.9997 14.2083C12.2653 14.2083 13.2913 13.1823 13.2913 11.9167C13.2913 10.651 12.2653 9.625 10.9997 9.625C9.73402 9.625 8.70801 10.651 8.70801 11.9167C8.70801 13.1823 9.73402 14.2083 10.9997 14.2083Z" fill="#5B6B79"/>
</g>
<defs>
<clipPath id="clip0_362_2631">
<rect width="22" height="22" fill="white"/>
</clipPath>
</defs>
</svg>
