<svg width="51" height="52" viewBox="0 0 51 52" fill="none" xmlns="http://www.w3.org/2000/svg">
<rect x="0.289062" y="0.623047" width="49.8124" height="51.1829" rx="9.32467" fill="url(#paint0_linear_362_2682)"/>
<path d="M25.195 15.5508C22.5346 15.5586 19.9787 16.6159 18.0552 18.5045V16.6171C18.0552 16.3343 17.9459 16.0631 17.7512 15.8631C17.5566 15.6631 17.2927 15.5508 17.0174 15.5508C16.7422 15.5508 16.4782 15.6631 16.2836 15.8631C16.089 16.0631 15.9797 16.3343 15.9797 16.6171V21.4155C15.9797 21.6983 16.089 21.9695 16.2836 22.1695C16.4782 22.3695 16.7422 22.4818 17.0174 22.4818H21.6873C21.9626 22.4818 22.2265 22.3695 22.4212 22.1695C22.6158 21.9695 22.7251 21.6983 22.7251 21.4155C22.7251 21.1327 22.6158 20.8615 22.4212 20.6615C22.2265 20.4615 21.9626 20.3492 21.6873 20.3492H19.1967C20.5311 18.9164 22.3095 18.0061 24.2263 17.7748C26.143 17.5434 28.0784 18.0054 29.6995 19.0814C31.3207 20.1574 32.5264 21.7801 33.1093 23.6705C33.6922 25.5609 33.6159 27.601 32.8935 29.4399C32.1711 31.2788 30.8478 32.8017 29.1511 33.7466C27.4543 34.6916 25.4902 34.9997 23.5964 34.6178C21.7025 34.236 19.9973 33.1881 18.7739 31.6544C17.5505 30.1207 16.8854 28.1969 16.8929 26.2139C16.8929 25.9311 16.7836 25.6599 16.5889 25.4599C16.3943 25.2599 16.1304 25.1476 15.8551 25.1476C15.5799 25.1476 15.316 25.2599 15.1213 25.4599C14.9267 25.6599 14.8174 25.9311 14.8174 26.2139C14.8174 28.3228 15.426 30.3844 16.5663 32.138C17.7066 33.8915 19.3274 35.2582 21.2236 36.0653C23.1199 36.8724 25.2065 37.0835 27.2195 36.6721C29.2326 36.2607 31.0817 35.2451 32.533 33.7538C33.9844 32.2626 34.9727 30.3626 35.3732 28.2942C35.7736 26.2257 35.5681 24.0817 34.7826 22.1333C33.9972 20.1849 32.667 18.5195 30.9605 17.3478C29.2539 16.1762 27.2475 15.5508 25.195 15.5508ZM25.195 21.9486C24.9197 21.9486 24.6558 22.061 24.4612 22.261C24.2665 22.4609 24.1572 22.7322 24.1572 23.015V26.2139C24.1572 26.4967 24.2665 26.7679 24.4612 26.9679C24.6558 27.1679 24.9197 27.2802 25.195 27.2802H27.2705C27.5457 27.2802 27.8097 27.1679 28.0043 26.9679C28.1989 26.7679 28.3082 26.4967 28.3082 26.2139C28.3082 25.9311 28.1989 25.6599 28.0043 25.4599C27.8097 25.2599 27.5457 25.1476 27.2705 25.1476H26.2327V23.015C26.2327 22.7322 26.1234 22.4609 25.9288 22.261C25.7342 22.061 25.4702 21.9486 25.195 21.9486Z" fill="white"/>
<defs>
<linearGradient id="paint0_linear_362_2682" x1="25.1953" y1="0.623047" x2="25.1953" y2="51.8059" gradientUnits="userSpaceOnUse">
<stop stop-color="#FE9900" stop-opacity="0.15"/>
<stop offset="1" stop-color="#FE9900" stop-opacity="0.8"/>
</linearGradient>
</defs>
</svg>
