<svg width="52" height="51" viewBox="0 0 52 51" fill="none" xmlns="http://www.w3.org/2000/svg">
<rect x="0.788086" y="0.500977" width="50.493" height="50.493" rx="10.2438" fill="url(#paint0_linear_362_2666)"/>
<path d="M35.5015 24.1697H34.4495V23.1178C34.4495 22.8388 34.3387 22.5712 34.1414 22.3739C33.9441 22.1767 33.6766 22.0658 33.3976 22.0658C33.1186 22.0658 32.851 22.1767 32.6538 22.3739C32.4565 22.5712 32.3457 22.8388 32.3457 23.1178V24.1697H31.2937C31.0147 24.1697 30.7472 24.2805 30.5499 24.4778C30.3526 24.6751 30.2418 24.9427 30.2418 25.2217C30.2418 25.5006 30.3526 25.7682 30.5499 25.9655C30.7472 26.1628 31.0147 26.2736 31.2937 26.2736H32.3457V27.3255C32.3457 27.6045 32.4565 27.8721 32.6538 28.0694C32.851 28.2666 33.1186 28.3775 33.3976 28.3775C33.6766 28.3775 33.9441 28.2666 34.1414 28.0694C34.3387 27.8721 34.4495 27.6045 34.4495 27.3255V26.2736H35.5015C35.7805 26.2736 36.048 26.1628 36.2453 25.9655C36.4426 25.7682 36.5534 25.5006 36.5534 25.2217C36.5534 24.9427 36.4426 24.6751 36.2453 24.4778C36.048 24.2805 35.7805 24.1697 35.5015 24.1697ZM27.4015 25.9791C27.9628 25.4932 28.413 24.8923 28.7216 24.2171C29.0302 23.5419 29.1898 22.8082 29.1898 22.0658C29.1898 20.6709 28.6357 19.3331 27.6493 18.3467C26.6629 17.3603 25.3251 16.8062 23.9302 16.8062C22.5352 16.8062 21.1974 17.3603 20.211 18.3467C19.2246 19.3331 18.6705 20.6709 18.6705 22.0658C18.6705 22.8082 18.8301 23.5419 19.1387 24.2171C19.4473 24.8923 19.8975 25.4932 20.4588 25.9791C18.9862 26.6459 17.7368 27.7227 16.8601 29.0807C15.9833 30.4388 15.5162 32.0207 15.5146 33.6372C15.5146 33.9161 15.6255 34.1837 15.8228 34.381C16.02 34.5783 16.2876 34.6891 16.5666 34.6891C16.8456 34.6891 17.1131 34.5783 17.3104 34.381C17.5077 34.1837 17.6185 33.9161 17.6185 33.6372C17.6185 31.9632 18.2835 30.3578 19.4672 29.1742C20.6508 27.9905 22.2562 27.3255 23.9302 27.3255C25.6041 27.3255 27.2095 27.9905 28.3931 29.1742C29.5768 30.3578 30.2418 31.9632 30.2418 33.6372C30.2418 33.9161 30.3526 34.1837 30.5499 34.381C30.7472 34.5783 31.0147 34.6891 31.2937 34.6891C31.5727 34.6891 31.8403 34.5783 32.0375 34.381C32.2348 34.1837 32.3457 33.9161 32.3457 33.6372C32.3441 32.0207 31.877 30.4388 31.0002 29.0807C30.1235 27.7227 28.8741 26.6459 27.4015 25.9791ZM23.9302 25.2217C23.306 25.2217 22.6958 25.0366 22.1769 24.6898C21.6579 24.343 21.2534 23.8502 21.0146 23.2735C20.7757 22.6969 20.7132 22.0623 20.835 21.4502C20.9567 20.838 21.2573 20.2757 21.6987 19.8343C22.14 19.393 22.7023 19.0924 23.3145 18.9707C23.9267 18.8489 24.5612 18.9114 25.1378 19.1503C25.7145 19.3891 26.2073 19.7936 26.5541 20.3126C26.9009 20.8315 27.086 21.4417 27.086 22.0658C27.086 22.9028 26.7535 23.7055 26.1616 24.2973C25.5698 24.8892 24.7671 25.2217 23.9302 25.2217Z" fill="white"/>
<defs>
<linearGradient id="paint0_linear_362_2666" x1="26.0346" y1="0.500977" x2="26.0346" y2="50.994" gradientUnits="userSpaceOnUse">
<stop stop-color="#9BD6F4"/>
<stop offset="1" stop-color="#1892D0"/>
</linearGradient>
</defs>
</svg>
