<svg width="22" height="22" viewBox="0 0 22 22" fill="none" xmlns="http://www.w3.org/2000/svg">
<g clip-path="url(#clip0_362_2641)">
<path opacity="0.4" d="M14.8405 1.8335H7.15884C3.82217 1.8335 1.83301 3.82266 1.83301 7.15933V14.8318C1.83301 18.1777 3.82217 20.1668 7.15884 20.1668H14.8313C18.168 20.1668 20.1572 18.1777 20.1572 14.841V7.15933C20.1663 3.82266 18.1772 1.8335 14.8405 1.8335Z" fill="#B5CCFF"/>
<path d="M14.4375 8.9375H7.5625C7.18667 8.9375 6.875 8.62583 6.875 8.25C6.875 7.87417 7.18667 7.5625 7.5625 7.5625H14.4375C14.8133 7.5625 15.125 7.87417 15.125 8.25C15.125 8.62583 14.8133 8.9375 14.4375 8.9375Z" fill="#4680FF"/>
<path d="M14.4375 14.4375H7.5625C7.18667 14.4375 6.875 14.1258 6.875 13.75C6.875 13.3742 7.18667 13.0625 7.5625 13.0625H14.4375C14.8133 13.0625 15.125 13.3742 15.125 13.75C15.125 14.1258 14.8133 14.4375 14.4375 14.4375Z" fill="#4680FF"/>
</g>
<defs>
<clipPath id="clip0_362_2641">
<rect width="22" height="22" fill="white"/>
</clipPath>
</defs>
</svg>
