<svg width="51" height="52" viewBox="0 0 51 52" fill="none" xmlns="http://www.w3.org/2000/svg">
<rect x="0.770508" y="0.810547" width="49.8124" height="51.1829" rx="10.2438" fill="url(#paint0_linear_362_2674)"/>
<path d="M20.4788 29.0696C20.3425 29.0696 20.2076 29.0971 20.0817 29.1507C19.9557 29.2043 19.8413 29.2828 19.745 29.3818C19.6486 29.4809 19.5721 29.5984 19.52 29.7278C19.4679 29.8572 19.441 29.9959 19.4411 30.1359V32.0364C18.1035 30.482 17.3653 28.4787 17.3656 26.4038C17.3654 26.0902 17.3836 25.7769 17.4203 25.4656C17.4371 25.3264 17.427 25.1851 17.3906 25.0499C17.3541 24.9147 17.2921 24.7883 17.208 24.6777C17.1239 24.5672 17.0194 24.4748 16.9006 24.4059C16.7817 24.3369 16.6507 24.2928 16.5151 24.2759C16.3796 24.259 16.2422 24.2698 16.1107 24.3077C15.9792 24.3455 15.8563 24.4096 15.749 24.4963C15.6417 24.5831 15.5521 24.6907 15.4853 24.8131C15.4186 24.9354 15.376 25.0701 15.36 25.2095C15.313 25.6057 15.2896 26.0046 15.29 26.4038C15.2915 28.9482 16.1814 31.4076 17.7982 33.3349H16.3278C16.0526 33.3349 15.7886 33.4472 15.594 33.6472C15.3994 33.8471 15.29 34.1184 15.29 34.4012C15.29 34.684 15.3994 34.9552 15.594 35.1552C15.7886 35.3551 16.0526 35.4675 16.3278 35.4675H20.4788C20.6411 35.4654 20.8006 35.4235 20.944 35.3452C21.0873 35.267 21.2104 35.1547 21.303 35.0177C21.3151 35.0013 21.3305 34.9891 21.3418 34.9718C21.3487 34.9612 21.3489 34.9487 21.3553 34.9379C21.4048 34.852 21.4418 34.7592 21.4653 34.6624C21.4807 34.6081 21.4916 34.5525 21.4979 34.4962C21.5009 34.4633 21.5166 34.4349 21.5166 34.4012V30.136C21.5167 29.9959 21.4899 29.8572 21.4377 29.7278C21.3856 29.5984 21.3091 29.4809 21.2128 29.3818C21.1164 29.2828 21.002 29.2043 20.876 29.1507C20.7501 29.0971 20.6151 29.0696 20.4788 29.0696ZM22.0355 20.006H20.1857C21.6985 18.6316 23.6483 17.8731 25.6676 17.8734C25.9727 17.8726 26.2775 17.8914 26.5802 17.9296C26.7156 17.9465 26.8528 17.9358 26.9842 17.8982C27.1155 17.8606 27.2383 17.7967 27.3457 17.7103C27.453 17.624 27.5427 17.5167 27.6097 17.3947C27.6767 17.2726 27.7196 17.1382 27.7361 16.9992C27.7525 16.8601 27.7421 16.7191 27.7055 16.5841C27.6689 16.4492 27.6068 16.3229 27.5227 16.2127C27.4386 16.1024 27.3342 16.0102 27.2154 15.9414C27.0967 15.8726 26.9659 15.8284 26.8305 15.8115C26.4447 15.7637 26.0563 15.7401 25.6676 15.7407C23.1914 15.7421 20.7979 16.6565 18.9222 18.3177V16.807C18.9222 16.5242 18.8129 16.253 18.6182 16.0531C18.4236 15.8531 18.1597 15.7407 17.8844 15.7407C17.6092 15.7407 17.3453 15.8531 17.1506 16.0531C16.956 16.253 16.8467 16.5242 16.8467 16.807V21.0723C16.8532 21.1428 16.8669 21.2124 16.8875 21.2799L16.8877 21.2812C16.9129 21.4124 16.9627 21.5374 17.0342 21.6491L17.0461 21.6671C17.1146 21.7696 17.2006 21.8586 17.2998 21.9298C17.3112 21.9383 17.3168 21.9514 17.3286 21.9595C17.3434 21.9696 17.3602 21.9728 17.3753 21.982C17.4342 22.0184 17.4965 22.0484 17.5614 22.0716C17.6491 22.103 17.7405 22.1219 17.8331 22.128C17.8511 22.1289 17.8663 22.1386 17.8844 22.1386H22.0355C22.3107 22.1386 22.5747 22.0263 22.7693 21.8263C22.9639 21.6263 23.0732 21.3551 23.0732 21.0723C23.0732 20.7895 22.9639 20.5183 22.7693 20.3183C22.5747 20.1184 22.3107 20.006 22.0355 20.006V20.006ZM34.4475 31.5265C34.4224 31.3952 34.3726 31.2702 34.301 31.1585L34.2893 31.1406C34.2206 31.0381 34.1346 30.9491 34.0353 30.8778C34.024 30.8694 34.0184 30.8562 34.0067 30.8481C33.9955 30.8405 33.9822 30.8403 33.9708 30.8331C33.8392 30.7579 33.6949 30.7089 33.5456 30.6887C33.5128 30.6855 33.4845 30.669 33.4508 30.669H29.2998C29.0246 30.669 28.7606 30.7814 28.566 30.9813C28.3714 31.1813 28.262 31.4525 28.262 31.7353C28.262 32.0181 28.3714 32.2894 28.566 32.4893C28.7606 32.6893 29.0246 32.8016 29.2998 32.8016H31.1495C29.6367 34.176 27.687 34.9345 25.6676 34.9343C25.3626 34.9347 25.0578 34.9156 24.755 34.877C24.4817 34.8429 24.2063 34.9218 23.9896 35.0962C23.7728 35.2707 23.6324 35.5265 23.5992 35.8074C23.566 36.0883 23.6428 36.3712 23.8126 36.5939C23.9824 36.8166 24.2314 36.9609 24.5047 36.995C24.8906 37.0429 25.2789 37.0669 25.6676 37.0669C28.1439 37.0655 30.5374 36.1511 32.4131 34.49V36.0006C32.4131 36.2834 32.5224 36.5547 32.717 36.7546C32.9116 36.9546 33.1756 37.0669 33.4508 37.0669C33.7261 37.0669 33.99 36.9546 34.1846 36.7546C34.3792 36.5547 34.4886 36.2834 34.4886 36.0006V31.7354C34.4821 31.6649 34.4684 31.5953 34.4478 31.5278L34.4475 31.5265ZM35.0075 19.4728C35.2827 19.4728 35.5467 19.3605 35.7413 19.1605C35.9359 18.9605 36.0452 18.6893 36.0452 18.4065C36.0452 18.1237 35.9359 17.8525 35.7413 17.6525C35.5467 17.4525 35.2827 17.3402 35.0075 17.3402H30.8564C30.7889 17.3469 30.7222 17.3607 30.6574 17.3815L30.6504 17.3829C30.5244 17.4088 30.4044 17.4593 30.2969 17.5317L30.2765 17.5458C30.1773 17.6161 30.0911 17.7042 30.022 17.8057C30.0138 17.8173 30.0012 17.8229 29.9935 17.8348C29.9861 17.8463 29.9858 17.8598 29.9789 17.8715C29.9048 18.0075 29.8568 18.1569 29.8373 18.3115C29.8344 18.3444 29.8187 18.3728 29.8187 18.4065V22.6718C29.8187 22.9546 29.928 23.2258 30.1226 23.4257C30.3172 23.6257 30.5812 23.7381 30.8564 23.7381C31.1317 23.7381 31.3956 23.6257 31.5902 23.4257C31.7849 23.2258 31.8942 22.9546 31.8942 22.6718V20.7706C33.2317 22.3253 33.9699 24.3288 33.9697 26.4038C33.9699 26.7174 33.9516 27.0307 33.915 27.342C33.8821 27.6227 33.9589 27.9053 34.1286 28.1279C34.2982 28.3504 34.5469 28.4947 34.82 28.5291C34.862 28.5341 34.9043 28.5366 34.9467 28.5364C35.2 28.5361 35.4446 28.4405 35.634 28.2676C35.8235 28.0948 35.9449 27.8567 35.9753 27.5982C36.0223 27.2019 36.0457 26.803 36.0452 26.4038C36.0438 23.8594 35.1538 21.4 33.537 19.4728H35.0075Z" fill="white"/>
<defs>
<linearGradient id="paint0_linear_362_2674" x1="25.6767" y1="0.810547" x2="25.6767" y2="51.9934" gradientUnits="userSpaceOnUse">
<stop stop-color="#AEC7ED" stop-opacity="0.5"/>
<stop offset="1" stop-color="#669AE8"/>
</linearGradient>
</defs>
</svg>
